<svg xmlns="http://www.w3.org/2000/svg" viewBox="0 0 750 500"><g id="freepik--background-complete--inject-2"><path d="M225.78,141.09H99.14V54.45H225.78Zm-125.64-1H224.78V55.45H100.14Z" style="fill:#ebebeb"></path><path d="M109.05,60a2.52,2.52,0,1,1-2.52-2.52A2.52,2.52,0,0,1,109.05,60Z" style="fill:#a6a6a6"></path><path d="M119.34,60a2.52,2.52,0,1,1-2.52-2.52A2.52,2.52,0,0,1,119.34,60Z" style="fill:#ebebeb"></path><path d="M129.63,60a2.52,2.52,0,1,1-2.52-2.52A2.52,2.52,0,0,1,129.63,60Z" style="fill:#1E1E1E"></path><rect x="99.64" y="64.47" width="125.64" height="1" style="fill:#ebebeb"></rect><path d="M682.37,294.22l-13.12.28-6.66.11c-2.23.05-4.47,0-6.7.06h-.44v-.45L655.39,283v-.5h.5l13.24.06c4.42,0,8.83.11,13.24.16h.28V283c0,1.9-.08,3.79-.13,5.66Zm0,0-.14-5.65c-.05-1.86-.11-3.7-.13-5.54l.27.28c-4.41.05-8.82.16-13.24.16l-13.24.06.5-.5,0,11.19-.45-.44c2.18,0,4.36,0,6.55.05L669,294Z" style="fill:#ebebeb"></path><path d="M667.6,308.33l-13.12.28-6.67.11c-2.22,0-4.46,0-6.69.06h-.44v-.45l0-11.19v-.5h.5l13.24.07c4.41,0,8.83.11,13.24.16h.28v.27c0,1.9-.08,3.79-.13,5.66Zm0,0-.14-5.65c-.05-1.86-.11-3.7-.13-5.54l.27.28c-4.41.05-8.83.16-13.24.16l-13.24.06.5-.5,0,11.19-.45-.44c2.18,0,4.36,0,6.55.05l6.57.12Z" style="fill:#ebebeb"></path><path d="M697.14,308.33l-13.12.28-6.66.11c-2.23,0-4.47,0-6.7.06h-.44v-.45l-.06-11.19v-.5h.5l13.24.07c4.42,0,8.83.11,13.24.16h.28v.27c0,1.9-.09,3.79-.13,5.66Zm0,0-.14-5.65c0-1.86-.11-3.7-.13-5.54l.27.28c-4.41.05-8.82.16-13.24.16l-13.24.06.5-.5,0,11.19-.45-.44c2.19,0,4.36,0,6.55.05l6.58.12Z" style="fill:#ebebeb"></path><path d="M324.79,161.07l-13.12.28-6.66.11c-2.23,0-4.47,0-6.7,0h-.44v-.45l-.06-11.19v-.5h.5l13.24.06c4.42,0,8.83.11,13.24.16h.28v.27c0,1.9-.09,3.78-.14,5.65Zm0,0-.14-5.66c0-1.86-.11-3.7-.13-5.53l.27.27c-4.41,0-8.82.16-13.24.16l-13.24.07.5-.5-.05,11.19-.45-.45c2.18,0,4.36,0,6.55.06l6.58.11Z" style="fill:#ebebeb"></path><path d="M310,175.18l-13.12.28-6.67.11c-2.22,0-4.46,0-6.69.05h-.44v-.45L283,164v-.5h.5l13.24.06c4.41,0,8.83.11,13.24.16h.28V164c0,1.9-.08,3.78-.13,5.65Zm0,0-.14-5.66c-.05-1.86-.11-3.7-.13-5.53l.27.27c-4.41.05-8.83.16-13.24.16l-13.24.07.5-.5L284,175.18l-.45-.45c2.18,0,4.36,0,6.55.06l6.57.11Z" style="fill:#ebebeb"></path><path d="M339.56,175.18l-13.12.28-6.66.11c-2.23,0-4.46,0-6.7.05h-.44v-.45L312.58,164v-.5h.5l13.24.06c4.42,0,8.83.11,13.24.16h.28V164c0,1.9-.09,3.78-.13,5.65Zm0,0-.14-5.66c0-1.86-.11-3.7-.13-5.53l.27.27c-4.41.05-8.82.16-13.24.16l-13.24.07.5-.5-.05,11.19-.45-.45c2.19,0,4.36,0,6.55.06l6.58.11Z" style="fill:#ebebeb"></path><path d="M82.4,330.89l-13.12.27-6.67.12c-2.22,0-4.46,0-6.69.05h-.44v-.44l0-11.19v-.51h.5l13.24.06c4.41,0,8.83.11,13.24.16h.28v.27c0,1.89-.08,3.78-.13,5.65Zm0,0-.14-5.66c-.05-1.86-.11-3.7-.13-5.53l.27.27c-4.41,0-8.83.16-13.24.16l-13.24.07.5-.5-.06,11.19-.44-.45c2.18,0,4.36,0,6.54.05l6.58.12Z" style="fill:#ebebeb"></path><path d="M547.86,161.06l-13.12.28-6.66.11c-2.23.05-4.47,0-6.7.05h-.44v-.45l-.06-11.19v-.5h.5l13.24.06c4.42,0,8.83.12,13.24.17h.28v.27c0,1.9-.08,3.79-.13,5.65Zm0,0-.14-5.65c-.05-1.87-.11-3.71-.13-5.54l.27.27c-4.41.05-8.82.16-13.24.17l-13.24.06.5-.5,0,11.19-.45-.45c2.18,0,4.36,0,6.55.06l6.58.11Z" style="fill:#ebebeb"></path><path d="M680.84,52.38l-13.12.28-6.67.11c-2.22,0-4.46,0-6.69.06h-.44v-.45l0-11.19v-.5h.5l13.24.06c4.41,0,8.83.12,13.24.17h.28v.27c0,1.9-.08,3.79-.13,5.65Zm0,0-.14-5.65c-.05-1.87-.11-3.71-.13-5.54l.27.27c-4.41,0-8.83.16-13.24.17l-13.24.06.5-.5-.05,11.19-.45-.45c2.18,0,4.36,0,6.55.06l6.57.11Z" style="fill:#ebebeb"></path><path d="M695.61,66.49l-13.12.28-6.66.11c-2.23.05-4.47,0-6.7.05h-.44v-.45l-.06-11.19v-.5h.5l13.24.06c4.42,0,8.83.12,13.24.17h.28v.27c0,1.9-.09,3.79-.14,5.65Zm0,0-.14-5.65c0-1.87-.11-3.71-.13-5.54l.27.27c-4.41,0-8.82.16-13.24.17l-13.24.06.5-.5,0,11.19-.45-.45c2.18,0,4.36,0,6.55.06l6.58.11Z" style="fill:#ebebeb"></path><path d="M79.34,52.39l-13.13.28-6.66.11c-2.22,0-4.46,0-6.69.06h-.45v-.45l0-11.19v-.5h.51l13.24.07c4.41,0,8.82.11,13.24.16h.27v.27c0,1.9-.09,3.79-.13,5.66Zm0,0-.15-5.65c0-1.87-.11-3.71-.13-5.54l.28.27c-4.42.06-8.83.16-13.24.17l-13.24.06.5-.5L53.3,52.39,52.86,52c2.18,0,4.35,0,6.54,0l6.58.11Z" style="fill:#ebebeb"></path><polygon points="154.84 286.32 85.16 304.55 61.77 215.1 113.5 201.57 131.44 196.88 135.9 213.92 154.84 286.32" style="fill:#ebebeb"></polygon><rect x="71.83" y="220.87" width="58.67" height="2.37" transform="translate(255.23 411.29) rotate(165.35)" style="fill:#dbdbdb"></rect><rect x="73.35" y="226.67" width="58.67" height="2.37" transform="translate(259.68 422.31) rotate(165.35)" style="fill:#dbdbdb"></rect><rect x="74.87" y="232.46" width="58.67" height="2.37" transform="translate(264.13 433.34) rotate(165.35)" style="fill:#dbdbdb"></rect><rect x="76.38" y="238.26" width="58.67" height="2.37" transform="translate(268.57 444.36) rotate(165.35)" style="fill:#dbdbdb"></rect><rect x="77.9" y="244.06" width="58.67" height="2.37" transform="translate(273.02 455.38) rotate(165.35)" style="fill:#dbdbdb"></rect><rect x="79.41" y="249.86" width="58.67" height="2.37" transform="matrix(-0.97, 0.25, -0.25, -0.97, 277.47, 466.41)" style="fill:#dbdbdb"></rect><rect x="80.93" y="255.65" width="58.67" height="2.37" transform="translate(281.92 477.43) rotate(165.35)" style="fill:#dbdbdb"></rect><rect x="82.45" y="261.45" width="58.67" height="2.37" transform="matrix(-0.97, 0.25, -0.25, -0.97, 286.37, 488.45)" style="fill:#dbdbdb"></rect><rect x="83.96" y="267.25" width="58.67" height="2.37" transform="matrix(-0.97, 0.25, -0.25, -0.97, 290.82, 499.47)" style="fill:#dbdbdb"></rect><rect x="85.48" y="273.04" width="58.67" height="2.37" transform="translate(295.27 510.5) rotate(165.35)" style="fill:#dbdbdb"></rect><rect x="86.99" y="278.84" width="58.67" height="2.37" transform="matrix(-0.97, 0.25, -0.25, -0.97, 299.72, 521.52)" style="fill:#dbdbdb"></rect><rect x="88.51" y="284.64" width="58.67" height="2.37" transform="matrix(-0.97, 0.25, -0.25, -0.97, 304.17, 532.54)" style="fill:#dbdbdb"></rect><polygon points="173.34 312.13 101.43 316.15 96.27 223.84 149.66 220.86 169.16 237.41 173.34 312.13" style="fill:#ebebeb"></polygon><polygon points="149.66 220.86 169.16 237.41 150.64 238.45 149.66 220.86" style="fill:#dbdbdb"></polygon><rect x="104.18" y="237.82" width="40.04" height="2.37" transform="translate(261.57 470.7) rotate(176.8)" style="fill:#dbdbdb"></rect><rect x="104.52" y="243.8" width="40.04" height="2.37" transform="translate(262.57 482.64) rotate(176.8)" style="fill:#dbdbdb"></rect><rect x="104.85" y="249.79" width="40.04" height="2.37" transform="translate(263.57 494.58) rotate(176.8)" style="fill:#dbdbdb"></rect><rect x="105.17" y="255.25" width="58.67" height="2.37" transform="translate(283.13 504.96) rotate(176.8)" style="fill:#dbdbdb"></rect><rect x="105.51" y="261.23" width="58.67" height="2.37" transform="translate(284.14 516.89) rotate(176.8)" style="fill:#dbdbdb"></rect><rect x="105.84" y="267.21" width="58.67" height="2.37" transform="translate(285.14 528.83) rotate(176.8)" style="fill:#dbdbdb"></rect><rect x="106.18" y="273.2" width="58.67" height="2.37" transform="translate(286.14 540.77) rotate(176.8)" style="fill:#dbdbdb"></rect><rect x="106.51" y="279.18" width="58.67" height="2.37" transform="translate(287.14 552.71) rotate(176.8)" style="fill:#dbdbdb"></rect><rect x="106.85" y="285.16" width="58.67" height="2.37" transform="translate(288.15 564.64) rotate(176.8)" style="fill:#dbdbdb"></rect><rect x="107.18" y="291.15" width="58.67" height="2.37" transform="translate(289.15 576.58) rotate(176.8)" style="fill:#dbdbdb"></rect><rect x="107.52" y="297.13" width="58.67" height="2.37" transform="translate(290.15 588.52) rotate(176.8)" style="fill:#dbdbdb"></rect><rect x="107.85" y="303.11" width="58.67" height="2.37" transform="translate(291.16 600.46) rotate(176.8)" style="fill:#dbdbdb"></rect><polygon points="579.43 124.61 648.41 175.38 682.32 129.21 613.34 78.44 579.43 124.61" style="fill:#ebebeb"></polygon><polygon points="584.4 123.84 647.66 170.4 677.34 129.97 614.08 83.42 584.4 123.84" style="fill:#fff"></polygon><path d="M610.57,100.24a8.54,8.54,0,1,0,11.94-1.82A8.55,8.55,0,0,0,610.57,100.24Z" style="fill:#dbdbdb"></path><polygon points="604 138.36 647.57 170.44 647.52 124.87 604 138.36" style="fill:#dbdbdb"></polygon><polygon points="586.91 125.81 622.88 152.28 619.05 119.81 586.91 125.81" style="fill:#ebebeb"></polygon><polygon points="554.42 102.77 640.06 103.92 640.77 46.64 555.12 45.49 554.42 102.77" style="fill:#ebebeb"></polygon><polygon points="558.02 99.25 636.56 100.31 637.17 50.16 558.63 49.11 558.02 99.25" style="fill:#fff"></polygon><path d="M565.56,64.84a8.55,8.55,0,1,0,8.66-8.44A8.55,8.55,0,0,0,565.56,64.84Z" style="fill:#dbdbdb"></path><polygon points="582.4 99.66 636.5 100.39 609.95 63.36 582.4 99.66" style="fill:#dbdbdb"></polygon><polygon points="561.2 99.39 605.86 99.99 583.85 75.82 561.2 99.39" style="fill:#ebebeb"></polygon></g><g id="freepik--Floor--inject-2"><polygon points="38.31 365.43 122.49 365.18 206.66 365.1 375 364.93 543.34 365.1 627.51 365.18 711.68 365.43 627.51 365.67 543.34 365.76 375 365.93 206.66 365.76 122.49 365.67 38.31 365.43" style="fill:#263238"></polygon></g><g id="freepik--Shadow--inject-2"><ellipse cx="375" cy="426.69" rx="324.28" ry="25.71" style="fill:#ebebeb"></ellipse></g><g id="freepik--Device--inject-2"><rect x="142.47" y="70.91" width="465.07" height="311.1" style="fill:#ebebeb"></rect><rect x="145.85" y="74.71" width="458.31" height="303.51" style="fill:#263238"></rect><rect x="81.89" y="405.34" width="586.21" height="21.35" style="fill:#dbdbdb"></rect><polygon points="81.89 405.34 142.47 382.01 607.53 382.01 668.11 405.34 81.89 405.34" style="fill:#ebebeb"></polygon><polygon points="147.88 397.06 186.96 382.01 563.04 382.01 602.13 397.06 147.88 397.06" style="fill:#263238"></polygon><rect x="171.75" y="97.77" width="406.51" height="257.39" style="fill:#fff"></rect><rect x="171.4" y="107.67" width="399.64" height="64.95" style="fill:#1E1E1E"></rect><rect x="171.4" y="97.77" width="406.85" height="9.9" style="fill:#455a64"></rect><path d="M179.27,102.72a2.46,2.46,0,1,1-2.45-2.46A2.45,2.45,0,0,1,179.27,102.72Z" style="fill:#c7c7c7"></path><path d="M189.3,102.72a2.46,2.46,0,1,1-2.45-2.46A2.45,2.45,0,0,1,189.3,102.72Z" style="fill:#fff"></path><path d="M199.33,102.72a2.46,2.46,0,1,1-2.45-2.46A2.45,2.45,0,0,1,199.33,102.72Z" style="fill:#1E1E1E"></path><rect x="571.04" y="107.67" width="7.22" height="247.48" style="fill:#dbdbdb"></rect><path d="M574.64,193.47h0a1.86,1.86,0,0,1-1.86-1.86V111a1.86,1.86,0,0,1,1.86-1.86h0a1.87,1.87,0,0,1,1.87,1.86v80.63A1.87,1.87,0,0,1,574.64,193.47Z" style="fill:#a6a6a6"></path><rect x="453.05" y="119.75" width="97.16" height="12.97" style="fill:#fff"></rect><path d="M550.34,132.85H452.92V119.61h97.42Zm-97.16-.27h96.9v-12.7h-96.9Z" style="fill:#c7c7c7"></path><rect x="537.11" y="119.61" width="13.24" height="13.24" style="fill:#455a64"></rect><path d="M547.84,129.86l-1.2.91-2.22-2.93-.81-1.07a1.75,1.75,0,0,0,.46-.26,2.07,2.07,0,0,0,.62-.8l.86,1.14Z" style="fill:#fff"></path><path d="M545.48,123a3.27,3.27,0,1,0-1.06,4.87,2.66,2.66,0,0,0,.45-.29,3.21,3.21,0,0,0,.68-.7A3.27,3.27,0,0,0,545.48,123Zm-1.41,3.54a1.75,1.75,0,0,1-.46.26,2,2,0,0,1-2.28-.62,2,2,0,1,1,3.11-2.38,2,2,0,0,1,.25,1.94A2.07,2.07,0,0,1,544.07,126.51Z" style="fill:#fff"></path><rect x="455.76" y="122.29" width="0.7" height="7.87" style="fill:#c7c7c7"></rect><rect x="224.41" y="119.75" width="223.77" height="12.97" style="fill:#fff"></rect><path d="M448.31,132.85h-224V119.61h224Zm-223.77-.27H448v-12.7H224.54Z" style="fill:#c7c7c7"></path><rect x="227.12" y="122.29" width="0.7" height="7.87" style="fill:#c7c7c7"></rect><polygon points="199.93 130.67 195.21 126.32 199.92 121.8 200.66 122.56 196.75 126.3 200.65 129.89 199.93 130.67" style="fill:#fff"></polygon><polygon points="211.33 121.79 216.05 126.14 211.34 130.66 210.61 129.9 214.51 126.15 210.61 122.57 211.33 121.79" style="fill:#fff"></polygon><rect x="323.57" y="186.93" width="103.04" height="79.06" transform="translate(750.18 452.91) rotate(180)" style="fill:#1E1E1E"></rect><path d="M333.83,204.22a9.36,9.36,0,1,0,7.34-7.35A9.36,9.36,0,0,0,333.83,204.22Z" style="fill:#fff;opacity:0.6000000000000001"></path><polygon points="357.56 248.95 426.61 248.95 392.09 206.4 357.56 248.95" style="fill:#1E1E1E"></polygon><polygon points="357.56 248.95 426.61 248.95 392.09 206.4 357.56 248.95" style="opacity:0.2"></polygon><polygon points="323.57 248.99 384.8 248.99 354.19 221.28 323.57 248.99" style="fill:#1E1E1E"></polygon><polygon points="323.57 248.99 384.8 248.99 354.19 221.28 323.57 248.99" style="opacity:0.1"></polygon><rect x="323.57" y="248.95" width="103.04" height="17.03" style="fill:#1E1E1E"></rect><rect x="323.57" y="248.95" width="103.04" height="17.03" style="opacity:0.1"></rect><rect x="193.44" y="276.92" width="54.49" height="4.58" style="fill:#a6a6a6"></rect><rect x="193.44" y="287.56" width="231.58" height="4.58" style="fill:#ebebeb"></rect><rect x="193.44" y="297.64" width="231.58" height="4.58" style="fill:#ebebeb"></rect><rect x="193.44" y="307.73" width="231.58" height="4.58" style="fill:#ebebeb"></rect><rect x="193.44" y="317.82" width="231.58" height="4.58" style="fill:#ebebeb"></rect><rect x="193.44" y="327.9" width="231.58" height="4.58" style="fill:#ebebeb"></rect><rect x="440.77" y="187.62" width="54.49" height="4.58" style="fill:#a6a6a6"></rect><rect x="440.77" y="198.25" width="115.79" height="4.58" style="fill:#ebebeb"></rect><rect x="440.77" y="208.34" width="115.79" height="4.58" style="fill:#ebebeb"></rect><rect x="440.77" y="218.42" width="115.79" height="4.58" style="fill:#ebebeb"></rect><rect x="440.77" y="228.51" width="115.79" height="4.58" style="fill:#ebebeb"></rect><rect x="440.77" y="247.21" width="115.79" height="4.58" style="fill:#ebebeb"></rect><rect x="440.77" y="257.3" width="115.79" height="4.58" style="fill:#ebebeb"></rect><rect x="440.77" y="267.39" width="115.79" height="4.58" style="fill:#ebebeb"></rect><rect x="440.77" y="277.47" width="115.79" height="4.58" style="fill:#ebebeb"></rect><rect x="440.77" y="287.56" width="115.79" height="4.58" style="fill:#ebebeb"></rect><rect x="440.77" y="307.73" width="115.79" height="4.58" style="fill:#ebebeb"></rect><rect x="440.77" y="317.82" width="78.04" height="4.58" style="fill:#ebebeb"></rect><rect x="521.14" y="314.93" width="0.5" height="10.36" style="fill:#263238"></rect><rect x="193.44" y="186.93" width="54.49" height="12.26" style="fill:#a6a6a6"></rect><rect x="193.44" y="207.65" width="115.61" height="4.58" style="fill:#ebebeb"></rect><rect x="193.44" y="217.74" width="115.61" height="4.58" style="fill:#ebebeb"></rect><rect x="193.44" y="227.82" width="115.61" height="4.58" style="fill:#ebebeb"></rect><rect x="193.44" y="237.91" width="115.61" height="4.58" style="fill:#ebebeb"></rect><rect x="193.44" y="251.32" width="115.61" height="4.58" style="fill:#ebebeb"></rect><rect x="193.44" y="261.41" width="115.61" height="4.58" style="fill:#ebebeb"></rect></g></svg>